<?xml version="1.0" encoding="utf-8"?>
<!-- Generator: Adobe Illustrator 21.0.0, SVG Export Plug-In . SVG Version: 6.00 Build 0)  -->
<svg version="1.1" xmlns="http://www.w3.org/2000/svg" xmlns:xlink="http://www.w3.org/1999/xlink" x="0px" y="0px"
	 viewBox="0 0 1500 700" style="enable-background:new 0 0 1500 700;" xml:space="preserve">
<style type="text/css">
	.st0{fill:#71C9BD;stroke:#FFFFFF;stroke-width:5;stroke-miterlimit:10;}
	.st1{fill:#FFFFFF;stroke:#71C9BD;stroke-width:8;stroke-miterlimit:10;}
	.st2{fill:#71C9BD;stroke:#71C9BD;stroke-width:8;stroke-miterlimit:10;}
	.st3{fill:#71C9BD;}
	.st4{fill:#FFFFFF;stroke:#71C9BD;stroke-width:10;stroke-miterlimit:10;}
</style>
<g id="S">
</g>
<g id="words">
	<path class="st0" d="M748.6,422.8"/>
	<g>
		<g>
			<path class="st1" d="M243.3,265.3c29.9-13.2,61.1-28,93.2-44.3c31.2-15.9,60.6-32,88.2-48c56.4,28.3,112.8,56.5,169.3,84.8
				c-54.6,34.4-109.2,68.8-163.8,103.2c-30.4-15.2-60.7-30.5-90.9-45.9C307.2,298.5,275.2,282,243.3,265.3z"/>
			<path class="st2" d="M430.3,363.1l-1-0.5c-29.5-14.2-59.9-29.4-90.9-45.9c-13.4-7.1-43.6-25.1-88.3-49.3
				c-2.1-1.2-3.9-2.1-5.1-2.8c29.5-14.1,59.8-29.2,90.6-45.3c30.5-16,59.9-32,88.2-48l0.9-0.5L598,257.5L430.3,363.1z M248.5,264.4
				c29.8,16.3,60.4,32.5,91.7,48.8c30.3,15.7,60.3,30.8,89.9,45.4l159.9-100.7l-165.2-82.7c-27.1,15.8-56.1,31.8-87.2,47.5
				C306.8,238.2,277,252.1,248.5,264.4z"/>
		</g>
		<g>
			<path class="st1" d="M244,271.4c2.6,29.6,5.2,59.1,7.8,88.7c57.2,31,114.5,62,171.7,93c57.9-36,115.7-72,173.6-108
				c-25.3-13.8-50.7-27.6-76-41.4c-30.5,19.9-61.1,39.8-91.6,59.7c-28.8-15.8-59-31.6-90.5-47.2C306.5,300.1,274.8,285.2,244,271.4z
				"/>
			<path class="st2" d="M423.6,455.3l-173.7-94.1c-3.7-30.1-7.4-60.2-11.1-90.4c32,12.3,65.8,26.7,101.1,43.5
				c32.2,15.3,62,31.1,89.5,46.6l91.6-59.8c25.9,14.2,51.8,28.5,77.7,42.7C540.3,381.1,481.9,418.2,423.6,455.3z M253.7,358.9
				l169.7,91.9c57.6-34.8,115.3-69.6,172.9-104.4c-25.1-13.5-50.2-26.9-75.2-40.4l-91.6,59.7l-1.1-0.6c-28.9-15.8-59-31.5-90.5-47.2
				c-32-15.9-63.4-30.7-93.9-44.4C247.3,302,250.5,330.4,253.7,358.9z"/>
		</g>
		<g>
			<path class="st1" d="M601.6,351.1c-1.8,27.4-3.5,54.9-5.3,82.3c-55.5,37.5-111,75.1-166.5,112.6c-2.2-30.4-4.5-60.7-6.7-91.1
				C482.6,420.3,542.1,385.7,601.6,351.1z"/>
			<path class="st2" d="M428.8,547.2c-2.6-31.1-5.2-62.2-7.9-93.3c60.2-34.3,120.4-68.5,180.6-102.8c-1.1,27.8-2.2,55.6-3.3,83.4
				C541.8,472,485.3,509.6,428.8,547.2z M425.2,456c1.8,28.9,3.6,57.9,5.4,86.8c54.6-36.8,109.2-73.6,163.7-110.4
				c1.8-26.5,3.6-53,5.4-79.5C541.5,387.2,483.4,421.6,425.2,456z"/>
		</g>
		<g>
			<path class="st1" d="M255.1,449.4c55.2,32,110.5,64.1,165.7,96.1c-0.2-30.7-0.5-61.3-0.7-92c-29.8-16.5-59.6-33-89.5-49.5
				C305.4,419.1,280.3,434.2,255.1,449.4z"/>
			<path class="st2" d="M421.8,547.3c-58.9-33.2-117.9-66.4-176.8-99.7c26.3-16.2,52.6-32.3,78.8-48.5
				c32.7,17.7,65.5,35.4,98.2,53.1C422,484,421.9,515.7,421.8,547.3z M255.1,447.5c56.4,31.8,112.8,63.5,169.2,95.3
				c-2.1-29.4-4.1-58.7-6.2-88.1c-30.5-16.9-61.1-33.7-91.6-50.6C302.7,418.6,278.9,433,255.1,447.5z"/>
		</g>
		<path class="st2" d="M320.7,405.4"/>
	</g>
	<g>
		<path class="st3" d="M780.1,222.4v22.6H799V256h-18.9v42.5c0,9.8,2.5,15.3,9.9,15.3c3.4,0,6-0.5,7.6-1l0.6,10.7
			c-2.5,1.1-6.6,2-11.7,2c-6.1,0-11.1-2.1-14.2-6c-3.8-4.2-5.1-11.2-5.1-20.5v-43h-11.2v-10.9h11.2v-18.9L780.1,222.4z"/>
		<path class="st3" d="M813.8,208.3H827v49.2h0.3c2.1-4.1,5.4-7.7,9.4-10.1c3.9-2.4,8.5-4.1,13.5-4.1c9.8,0,25.3,6.5,25.3,33.7v46.9
			h-13.2v-45.3c0-12.7-4.3-23.4-16.8-23.4c-8.5,0-15.3,6.5-17.7,14.3c-0.8,2-0.9,4.1-0.9,6.8v47.5h-13.2V208.3z"/>
		<path class="st3" d="M904.4,287.1c0.3,19.4,11.7,27.4,24.9,27.4c9.4,0,15.1-1.8,20.1-4.1l2.2,10.3c-4.6,2.3-12.6,4.9-24.1,4.9
			c-22.3,0-35.7-16-35.7-39.7c0-23.8,12.9-42.5,34-42.5c23.7,0,30,22.6,30,37.1c0,2.9-0.3,5.2-0.5,6.7H904.4z M943.1,276.8
			c0.1-9.1-3.5-23.3-18.3-23.3c-13.3,0-19.2,13.4-20.2,23.3H943.1z"/>
	</g>
	<g>
		<path d="M1147.9,490.6c7.8,5.1,21.6,10.5,34.8,10.5c19.2,0,28.2-9.6,28.2-21.6c0-12.6-7.5-19.5-27-26.7
			c-26.1-9.3-38.4-23.7-38.4-41.1c0-23.4,18.9-42.6,50.1-42.6c14.7,0,27.6,4.2,35.7,9l-6.6,19.2c-5.7-3.6-16.2-8.4-29.7-8.4
			c-15.6,0-24.3,9-24.3,19.8c0,12,8.7,17.4,27.6,24.6c25.2,9.6,38.1,22.2,38.1,43.8c0,25.5-19.8,43.5-54.3,43.5
			c-15.9,0-30.6-3.9-40.8-9.9L1147.9,490.6z"/>
		<path d="M1036.9,380.3h0.6c3.6-8.9,8.7-19.9,12.9-28.8L1093,264h31.8l-56.1,104.3l63.9,149.3h-32.1L1050.4,396l-13.5,26.2v95.4
			h-26.1V145.6h26.1V380.3z"/>
		<path d="M979.9,512.2c-6.9,3.6-22.2,8.4-41.7,8.4c-43.8,0-72.3-29.7-72.3-74.1c0-44.7,30.6-77.1,78-77.1c15.6,0,29.4,3.9,36.6,7.5
			l-6,20.4c-6.3-3.6-16.2-6.9-30.6-6.9c-33.3,0-51.3,24.6-51.3,54.9c0,33.6,21.6,54.3,50.4,54.3c15,0,24.9-3.9,32.4-7.2L979.9,512.2
			z"/>
		<path d="M812.2,517.6l-2.1-18.3h-0.9c-8.1,11.4-23.7,21.6-44.4,21.6c-29.4,0-44.4-20.7-44.4-41.7c0-35.1,31.2-54.3,87.3-54v-3
			c0-12-3.3-33.6-33-33.6c-13.5,0-27.6,4.2-37.8,10.8l-6-17.4c12-7.8,29.4-12.9,47.7-12.9c44.4,0,55.2,30.3,55.2,59.4v54.3
			c0,12.6,0.6,24.9,2.4,34.8H812.2z M808.3,443.5c-28.8-0.6-61.5,4.5-61.5,32.7c0,17.1,11.4,25.2,24.9,25.2
			c18.9,0,30.9-12,35.1-24.3c0.9-2.7,1.5-5.7,1.5-8.4V443.5z"/>
		<path d="M664.3,139.6v83.7h37.8v40.3h-37.8v157.1c0,36.1,5.1,56.6,19.8,56.6c6.9,0,12-1.8,15.3-3.6l1.2,39.7
			c-5.1,4.2-13.2,7.2-23.4,7.2c-12.3,0-22.2-7.8-28.5-22.3c-7.5-15.7-10.2-41.5-10.2-75.9V263.6H616v-40.3h22.5v-69.8L664.3,139.6z"
			/>
	</g>
	<path class="st4" d="M636.2,425.5"/>
</g>
</svg>
