<?xml version="1.0" encoding="utf-8"?>
<!-- Generator: Adobe Illustrator 21.0.0, SVG Export Plug-In . SVG Version: 6.00 Build 0)  -->
<svg version="1.1" xmlns="http://www.w3.org/2000/svg" xmlns:xlink="http://www.w3.org/1999/xlink" x="0px" y="0px"
	 viewBox="0 0 1500 700" style="enable-background:new 0 0 1500 700;" xml:space="preserve">
<style type="text/css">
	.st0{fill:#FFFFFF;stroke:#FFFFFF;stroke-miterlimit:10;}
	.st1{fill:#71C9BD;stroke:#FFFFFF;stroke-width:5;stroke-miterlimit:10;}
	.st2{fill:#FFFFFF;stroke:#71C9BD;stroke-width:8;stroke-miterlimit:10;}
	.st3{fill:#71C9BD;stroke:#71C9BD;stroke-width:8;stroke-miterlimit:10;}
	.st4{fill:#71C9BD;}
	.st5{fill:#FFFFFF;stroke:#71C9BD;stroke-width:10;stroke-miterlimit:10;}
</style>
<g id="background">
	<path class="st0" d="M1488,695H12c-6.6,0-12-5.4-12-12V16.2c0-6.6,5.4-12,12-12h1476c6.6,0,12,5.4,12,12V683
		C1500,689.6,1494.6,695,1488,695z"/>
</g>
<g id="Layer_1">
	<g id="S">
	</g>
	<g id="words">
		<path class="st1" d="M765.3,457"/>
		<g>
			<g>
				<path class="st2" d="M62.3,244.6c41.6-17.8,85-37.8,129.7-59.8c43.4-21.4,84.3-43.2,122.7-64.8
					c78.5,38.2,156.9,76.2,235.6,114.4c-76,46.4-151.9,92.8-227.9,139.2c-42.3-20.5-84.5-41.1-126.5-61.9
					C151.2,289.4,106.6,267.1,62.3,244.6z"/>
				<path class="st3" d="M322.4,376.5l-1.4-0.7c-41-19.2-83.3-39.7-126.5-61.9c-18.6-9.6-60.7-33.9-122.9-66.5
					c-2.9-1.6-5.4-2.8-7.1-3.8c41-19,83.2-39.4,126.1-61.1c42.4-21.6,83.3-43.2,122.7-64.8l1.3-0.7l241.1,117L322.4,376.5z
					 M69.5,243.4c41.5,22,84,43.8,127.6,65.8c42.2,21.2,83.9,41.6,125.1,61.2l222.5-135.8L314.8,123
					c-37.7,21.3-78.1,42.9-121.3,64.1C150.6,208,109.1,226.8,69.5,243.4z"/>
			</g>
			<g>
				<path class="st2" d="M63.2,252.8c3.6,39.9,7.2,79.7,10.9,119.7c79.6,41.8,159.3,83.6,238.9,125.5
					c80.6-48.6,161-97.1,241.5-145.7c-35.2-18.6-70.5-37.2-105.7-55.8c-42.4,26.8-85,53.7-127.4,80.5
					c-40.1-21.3-82.1-42.6-125.9-63.7C150.2,291.5,106.1,271.4,63.2,252.8z"/>
				<path class="st3" d="M313.1,500.9L71.4,373.9c-5.1-40.6-10.3-81.2-15.4-122c44.5,16.6,91.6,36,140.7,58.7
					c44.8,20.6,86.3,42,124.5,62.9l127.4-80.7c36,19.2,72.1,38.4,108.1,57.6C475.5,400.8,394.2,450.8,313.1,500.9z M76.7,370.8
					l236.1,124C393,447.9,473.3,400.9,553.4,354c-34.9-18.2-69.8-36.3-104.6-54.5L321.3,380l-1.5-0.8
					c-40.2-21.3-82.1-42.5-125.9-63.7c-44.5-21.4-88.2-41.4-130.6-59.9C67.8,294.1,72.3,332.4,76.7,370.8z"/>
			</g>
			<g>
				<path class="st2" d="M560.8,360.3c-2.5,37-4.9,74.1-7.4,111C476.2,521.9,399,572.7,321.7,623.2c-3.1-41-6.3-81.9-9.3-122.9
					C395.2,453.7,478,407,560.8,360.3z"/>
				<path class="st3" d="M320.4,624.9c-3.6-42-7.2-83.9-11-125.9c83.8-46.3,167.5-92.4,251.3-138.7c-1.5,37.5-3.1,75-4.6,112.5
					C477.6,523.4,399,574.1,320.4,624.9z M315.3,501.8c2.5,39,5,78.1,7.5,117.1c76-49.6,151.9-99.3,227.8-148.9
					c2.5-35.7,5-71.5,7.5-107.2C477.2,409,396.3,455.4,315.3,501.8z"/>
			</g>
			<g>
				<path class="st2" d="M78.7,492.9c76.8,43.2,153.7,86.5,230.5,129.6c-0.3-41.4-0.7-82.7-1-124.1c-41.5-22.3-82.9-44.5-124.5-66.8
					C148.7,452.1,113.7,472.4,78.7,492.9z"/>
				<path class="st3" d="M310.6,625c-81.9-44.8-164-89.6-246-134.5c36.6-21.9,73.2-43.6,109.6-65.4c45.5,23.9,91.1,47.8,136.6,71.6
					C310.9,539.6,310.8,582.4,310.6,625z M78.7,490.4c78.5,42.9,156.9,85.7,235.4,128.6c-2.9-39.7-5.7-79.2-8.6-118.8
					c-42.4-22.8-85-45.5-127.4-68.3C144.9,451.4,111.8,470.8,78.7,490.4z"/>
			</g>
			<path class="st3" d="M170,433.6"/>
		</g>
		<g>
			<path class="st4" d="M809.1,186.7v30.5h26.3V232h-26.3v57.3c0,13.2,3.5,20.6,13.8,20.6c4.7,0,8.3-0.7,10.6-1.3l0.8,14.4
				c-3.5,1.5-9.2,2.7-16.3,2.7c-8.5,0-15.4-2.8-19.8-8.1c-5.3-5.7-7.1-15.1-7.1-27.7v-58h-15.6v-14.7h15.6v-25.5L809.1,186.7z"/>
			<path class="st4" d="M856,167.7h18.4v66.4h0.4c2.9-5.5,7.5-10.4,13.1-13.6c5.4-3.2,11.8-5.5,18.8-5.5c13.6,0,35.2,8.8,35.2,45.5
				v63.3h-18.4v-61.1c0-17.1-6-31.6-23.4-31.6c-11.8,0-21.3,8.8-24.6,19.3c-1.1,2.7-1.3,5.5-1.3,9.2v64.1h-18.4V167.7H856z"/>
			<path class="st4" d="M982.1,274c0.4,26.2,16.3,37,34.6,37c13.1,0,21-2.4,28-5.5l3.1,13.9c-6.4,3.1-17.5,6.6-33.5,6.6
				c-31,0-49.7-21.6-49.7-53.6c0-32.1,17.9-57.3,47.3-57.3c33,0,41.7,30.5,41.7,50c0,3.9-0.4,7-0.7,9h-70.8V274z M1035.9,260.1
				c0.1-12.3-4.9-31.4-25.5-31.4c-18.5,0-26.7,18.1-28.1,31.4H1035.9z"/>
		</g>
		<g>
			<path d="M1320.9,548.5c10.9,6.9,30.1,14.2,48.4,14.2c26.7,0,39.2-13,39.2-29.1c0-17-10.4-26.3-37.6-36
				c-36.3-12.5-53.4-32-53.4-55.4c0-31.6,26.3-57.5,69.7-57.5c20.5,0,38.4,5.7,49.7,12.1l-9.2,25.9c-7.9-4.9-22.5-11.3-41.3-11.3
				c-21.7,0-33.8,12.1-33.8,26.7c0,16.2,12.1,23.5,38.4,33.2c35.1,13,53,29.9,53,59.1c0,34.4-27.5,58.7-75.5,58.7
				c-22.1,0-42.6-5.3-56.8-13.4L1320.9,548.5z"/>
			<path d="M1166.4,399.7h0.8c5-12,12.1-26.8,17.9-38.9l59.3-118h44.2l-78.1,140.7l88.9,201.4h-44.7l-69.7-164l-18.8,35.3v128.7
				h-36.3V83.1h36.3V399.7z"/>
			<path d="M1087.1,577.6c-9.6,4.9-30.9,11.3-58,11.3c-60.9,0-100.6-40.1-100.6-100c0-60.3,42.6-104,108.5-104
				c21.7,0,40.9,5.3,50.9,10.1l-8.3,27.5c-8.8-4.9-22.5-9.3-42.6-9.3c-46.3,0-71.4,33.2-71.4,74.1c0,45.3,30.1,73.3,70.1,73.3
				c20.9,0,34.6-5.3,45.1-9.7L1087.1,577.6z"/>
			<path d="M853.8,584.9l-2.9-24.7h-1.3c-11.3,15.4-33,29.1-61.8,29.1c-40.9,0-61.8-27.9-61.8-56.3c0-47.4,43.4-73.3,121.5-72.8v-4
				c0-16.2-4.6-45.3-45.9-45.3c-18.8,0-38.4,5.7-52.6,14.6l-8.3-23.5c16.7-10.5,40.9-17.4,66.4-17.4c61.8,0,76.8,40.9,76.8,80.1V538
				c0,17,0.8,33.6,3.3,46.9L853.8,584.9L853.8,584.9z M848.4,485c-40.1-0.8-85.6,6.1-85.6,44.1c0,23.1,15.9,34,34.6,34
				c26.3,0,43-16.2,48.8-32.8c1.3-3.6,2.1-7.7,2.1-11.3V485z"/>
			<path d="M648,75v112.9h52.6v54.4H648v211.9c0,48.7,7.1,76.4,27.5,76.4c9.6,0,16.7-2.4,21.3-4.9l1.7,53.6
				c-7.1,5.7-18.4,9.7-32.6,9.7c-17.1,0-30.9-10.5-39.7-30.1c-10.4-21.2-14.2-56-14.2-102.4V242.3h-31.3v-54.4h31.3V93.8L648,75z"/>
		</g>
		<path class="st5" d="M608.9,460.7"/>
	</g>
</g>
</svg>
