<?xml version="1.0" encoding="utf-8"?>
<!-- Generator: Adobe Illustrator 21.0.0, SVG Export Plug-In . SVG Version: 6.00 Build 0)  -->
<svg version="1.1" xmlns="http://www.w3.org/2000/svg" xmlns:xlink="http://www.w3.org/1999/xlink" x="0px" y="0px"
	 viewBox="0 0 612 612" style="enable-background:new 0 0 612 612;" xml:space="preserve">
<style type="text/css">
	.st0{fill:#71C9BD;stroke:#FFFFFF;stroke-width:7;stroke-miterlimit:10;}
</style>
<g id="background">
</g>
<g id="S">
	<g>
		<path class="st0" d="M28.9,166.9c95.3-48.2,190.6-96.4,285.9-144.5c88.3,45,176.7,90,265,135C494,207.6,408.2,257.7,322.4,307.9
			C224.6,260.9,126.7,213.9,28.9,166.9z"/>
		<path class="st0" d="M28.9,166.9c2.5,46.5,4.9,93,7.4,139.5c91.4,46.1,182.9,92.2,274.3,138.3c93.1-52.9,186.2-105.9,279.4-158.8
			c-36.2-23.7-72.4-47.3-108.6-71c-53,31-106.1,62-159.1,93C224.6,260.9,126.7,213.9,28.9,166.9z"/>
		<path class="st0" d="M585.4,291.7c1.6,41.1,3.1,82.2,4.7,123.4c-90,58.3-180,116.7-270,175c-3.2-48.4-6.3-96.9-9.5-145.3
			C402.2,393.7,493.8,342.7,585.4,291.7z"/>
		<path class="st0" d="M150.3,369.1c53.4,25.2,106.9,50.4,160.3,75.6c3.2,48.4,6.3,96.9,9.5,145.3
			c-98.2-50.8-196.5-101.5-294.7-152.2C67.1,414.9,108.7,392,150.3,369.1z"/>
	</g>
</g>
</svg>
