<?xml version="1.0" encoding="utf-8"?>
<!-- Generator: Adobe Illustrator 21.0.0, SVG Export Plug-In . SVG Version: 6.00 Build 0)  -->
<svg version="1.1" xmlns="http://www.w3.org/2000/svg" xmlns:xlink="http://www.w3.org/1999/xlink" x="0px" y="0px"
	 viewBox="0 0 1500 700" style="enable-background:new 0 0 1500 700;" xml:space="preserve">
<style type="text/css">
	.st0{fill:#71C9BD;stroke:#FFFFFF;stroke-width:5;stroke-miterlimit:10;}
	.st1{fill:#71C9BD;}
	.st2{fill:#71C9BD;stroke:#FFFFFF;stroke-width:7;stroke-miterlimit:10;}
</style>
<g id="S">
</g>
<g id="words">
	<path class="st0" d="M748.6,422.8"/>
	<g>
		<path class="st1" d="M780.1,222.4v22.6H799V256h-18.9v42.5c0,9.8,2.5,15.3,9.9,15.3c3.4,0,6-0.5,7.6-1l0.6,10.7
			c-2.5,1.1-6.6,2-11.7,2c-6.1,0-11.1-2.1-14.2-6c-3.8-4.2-5.1-11.2-5.1-20.5v-43h-11.2v-10.9h11.2v-18.9L780.1,222.4z"/>
		<path class="st1" d="M813.8,208.3H827v49.2h0.3c2.1-4.1,5.4-7.7,9.4-10.1c3.9-2.4,8.5-4.1,13.5-4.1c9.8,0,25.3,6.5,25.3,33.7v46.9
			h-13.2v-45.3c0-12.7-4.3-23.4-16.8-23.4c-8.5,0-15.3,6.5-17.7,14.3c-0.8,2-0.9,4.1-0.9,6.8v47.5h-13.2V208.3z"/>
		<path class="st1" d="M904.4,287.1c0.3,19.4,11.7,27.4,24.9,27.4c9.4,0,15.1-1.8,20.1-4.1l2.2,10.3c-4.6,2.3-12.6,4.9-24.1,4.9
			c-22.3,0-35.7-16-35.7-39.7c0-23.8,12.9-42.5,34-42.5c23.7,0,30,22.6,30,37.1c0,2.9-0.3,5.2-0.5,6.7H904.4z M943.1,276.8
			c0.1-9.1-3.5-23.3-18.3-23.3c-13.3,0-19.2,13.4-20.2,23.3H943.1z"/>
	</g>
	<g>
		<path d="M1147.9,490.6c7.8,5.1,21.6,10.5,34.8,10.5c19.2,0,28.2-9.6,28.2-21.6c0-12.6-7.5-19.5-27-26.7
			c-26.1-9.3-38.4-23.7-38.4-41.1c0-23.4,18.9-42.6,50.1-42.6c14.7,0,27.6,4.2,35.7,9l-6.6,19.2c-5.7-3.6-16.2-8.4-29.7-8.4
			c-15.6,0-24.3,9-24.3,19.8c0,12,8.7,17.4,27.6,24.6c25.2,9.6,38.1,22.2,38.1,43.8c0,25.5-19.8,43.5-54.3,43.5
			c-15.9,0-30.6-3.9-40.8-9.9L1147.9,490.6z"/>
		<path d="M1036.9,380.3h0.6c3.6-8.9,8.7-19.9,12.9-28.8L1093,264h31.8l-56.1,104.3l63.9,149.3h-32.1L1050.4,396l-13.5,26.2v95.4
			h-26.1V145.6h26.1V380.3z"/>
		<path d="M979.9,512.2c-6.9,3.6-22.2,8.4-41.7,8.4c-43.8,0-72.3-29.7-72.3-74.1c0-44.7,30.6-77.1,78-77.1c15.6,0,29.4,3.9,36.6,7.5
			l-6,20.4c-6.3-3.6-16.2-6.9-30.6-6.9c-33.3,0-51.3,24.6-51.3,54.9c0,33.6,21.6,54.3,50.4,54.3c15,0,24.9-3.9,32.4-7.2L979.9,512.2
			z"/>
		<path d="M812.2,517.6l-2.1-18.3h-0.9c-8.1,11.4-23.7,21.6-44.4,21.6c-29.4,0-44.4-20.7-44.4-41.7c0-35.1,31.2-54.3,87.3-54v-3
			c0-12-3.3-33.6-33-33.6c-13.5,0-27.6,4.2-37.8,10.8l-6-17.4c12-7.8,29.4-12.9,47.7-12.9c44.4,0,55.2,30.3,55.2,59.4v54.3
			c0,12.6,0.6,24.9,2.4,34.8H812.2z M808.3,443.5c-28.8-0.6-61.5,4.5-61.5,32.7c0,17.1,11.4,25.2,24.9,25.2
			c18.9,0,30.9-12,35.1-24.3c0.9-2.7,1.5-5.7,1.5-8.4V443.5z"/>
		<path d="M664.3,139.6v83.7h37.8v40.3h-37.8v157.1c0,36.1,5.1,56.6,19.8,56.6c6.9,0,12-1.8,15.3-3.6l1.2,39.7
			c-5.1,4.2-13.2,7.2-23.4,7.2c-12.3,0-22.2-7.8-28.5-22.3c-7.5-15.7-10.2-41.5-10.2-75.9V263.6H616v-40.3h22.5v-69.8L664.3,139.6z"
			/>
	</g>
	<g>
		<path class="st2" d="M230.7,271.3c61-31.8,122.1-63.5,183.1-95.3c56.6,29.7,113.2,59.3,169.7,89c-55,33.1-109.9,66.1-164.9,99.2
			C356,333.3,293.4,302.3,230.7,271.3z"/>
		<path class="st2" d="M230.7,271.3c1.6,30.7,3.2,61.3,4.7,92c58.6,30.4,117.1,60.8,175.7,91.1c59.6-34.9,119.3-69.8,178.9-104.7
			c-23.2-15.6-46.4-31.2-69.5-46.8c-34,20.4-67.9,40.9-101.9,61.3C356,333.3,293.4,302.3,230.7,271.3z"/>
		<path class="st2" d="M587.1,353.5c1,27.1,2,54.2,3,81.3c-57.6,38.5-115.3,76.9-172.9,115.4c-2-31.9-4-63.9-6.1-95.8
			C469.8,420.8,528.5,387.2,587.1,353.5z"/>
		<path class="st2" d="M308.5,404.6c34.2,16.6,68.4,33.2,102.7,49.8c2,31.9,4,63.9,6.1,95.8c-62.9-33.5-125.8-66.9-188.7-100.4
			C255.2,434.8,281.8,419.7,308.5,404.6z"/>
	</g>
</g>
</svg>
